<svg xmlns="http://www.w3.org/2000/svg" width="14" height="14" viewBox="0 0 14 14" fill="none">
  <g clip-path="url(#clip0_1_4064)">
    <path d="M11.6725 8.97167C10.955 8.97167 10.2608 8.855 9.61333 8.645C9.40917 8.575 9.18167 8.6275 9.02417 8.785L8.10833 9.93417C6.4575 9.14667 4.91167 7.65917 4.08917 5.95L5.22667 4.98167C5.38417 4.81833 5.43083 4.59083 5.36667 4.38667C5.15083 3.73917 5.04 3.045 5.04 2.3275C5.04 2.0125 4.7775 1.75 4.4625 1.75H2.44417C2.12917 1.75 1.75 1.89 1.75 2.3275C1.75 7.74667 6.25917 12.25 11.6725 12.25C12.0867 12.25 12.25 11.8825 12.25 11.5617V9.54917C12.25 9.23417 11.9875 8.97167 11.6725 8.97167Z" fill="currentColor"/>
  </g>
  <defs>
    <clipPath id="clip0_1_4064">
      <rect width="14" height="14" fill="currentColor"/>
    </clipPath>
  </defs>
</svg>