<svg xmlns="http://www.w3.org/2000/svg" width="69" height="69" viewBox="0 0 69 69" fill="none">
  <circle cx="34.5" cy="34.5" r="31.5" stroke="#BFC100" stroke-width="6"/>
  <path d="M34.0648 20.7983C28.5865 20.7983 24.1296 25.2552 24.1296 30.7335C24.1296 37.5322 33.0206 47.513 33.3992 47.9346C33.7547 48.3306 34.3755 48.3299 34.7304 47.9346C35.109 47.513 44 37.5322 44 30.7335C43.9999 25.2552 39.543 20.7983 34.0648 20.7983ZM34.0648 35.7321C31.3085 35.7321 29.0662 33.4898 29.0662 30.7335C29.0662 27.9772 31.3086 25.7349 34.0648 25.7349C36.821 25.7349 39.0633 27.9773 39.0633 30.7335C39.0633 33.4898 36.821 35.7321 34.0648 35.7321Z" fill="#BFC100"/>
</svg>