<svg xmlns="http://www.w3.org/2000/svg" width="36" height="35" viewBox="0 0 36 35" fill="none">
  <path d="M35.549 17.0766C36.2015 16.3559 36.1385 15.2512 35.4083 14.6098L19.3194 0.472311C18.5891 -0.169018 17.4183 -0.155583 16.7034 0.502598L0.559902 15.3636C-0.154997 16.0218 -0.190084 17.1251 0.482216 17.8268L0.886957 18.2502C1.55844 18.9519 2.64381 19.0356 3.30966 18.4365L4.51613 17.3514V33.2364C4.51613 34.211 5.3025 35 6.27228 35H12.5651C13.5349 35 14.3212 34.211 14.3212 33.2364V22.1233H22.3478V33.2364C22.3338 34.2103 23.0277 34.9993 23.9975 34.9993H30.6663C31.636 34.9993 32.4224 34.2103 32.4224 33.2357V17.5751C32.4224 17.5751 32.7557 17.8683 33.1668 18.2312C33.5771 18.5933 34.4391 18.3029 35.0917 17.5815L35.549 17.0766Z" fill="white"/>
</svg>