<svg width="128" height="40" viewBox="0 0 128 40" fill="none" xmlns="http://www.w3.org/2000/svg">
<path d="M37.0414 19.9967L32.4955 32.2762C29.1073 28.0609 23.9137 25.3641 18.0857 25.3641C15.7702 25.3641 13.5529 25.7896 11.5121 26.5619L18.0857 8.81689L22.2327 20.0033H28.7606L21.3562 0H14.8218L0 40C0 40 6.54096 39.9738 6.5475 39.9673C7.666 34.6588 12.4147 30.6529 18.0857 30.6529C23.7633 30.6529 28.499 34.6588 29.6305 40H29.6371H36.165L43.5759 20.0033H37.0414V19.9967Z" fill="#103350"/>
<path d="M62.497 6.4314C63.4519 8.82708 64.3023 11.2489 65.0545 13.7035C65.8067 16.1581 66.415 18.58 66.886 20.9757H63.9687C63.8771 20.4978 63.7855 20.0135 63.6874 19.5291C63.5893 19.0382 63.4781 18.5473 63.3538 18.0498H58.0491C57.9248 18.5473 57.8136 19.0382 57.709 19.5291C57.6043 20.02 57.5128 20.4978 57.4212 20.9757H54.5759C55.0468 18.58 55.6617 16.1581 56.4139 13.7035C57.1726 11.2489 58.0164 8.82708 58.9583 6.4314H62.4839H62.497ZM62.7717 15.7327C62.4708 14.633 62.1503 13.5464 61.8036 12.473C61.457 11.3995 61.0841 10.3391 60.6851 9.29836C60.3057 10.3391 59.9395 11.3995 59.5797 12.473C59.2265 13.5464 58.8994 14.633 58.6116 15.7327H62.7717Z" fill="#103350"/>
<path d="M72.3279 9.35693C72.8643 9.3242 73.3875 9.29802 73.8847 9.27838C74.3818 9.25874 74.8069 9.2522 75.1536 9.2522C76.2067 9.2522 77.1224 9.34384 77.9073 9.52057C78.6923 9.6973 79.3529 9.95257 79.8893 10.2864C80.4191 10.6202 80.8246 11.0326 81.0993 11.517C81.3741 12.0013 81.5114 12.5512 81.5114 13.173C81.5114 13.8734 81.3414 14.5017 80.9947 15.0581C80.648 15.608 80.1313 16.0661 79.4379 16.4327C79.8696 17.1527 80.2817 17.8924 80.6742 18.6386C81.0666 19.3847 81.4526 20.1637 81.8188 20.9753H78.7381C78.4372 20.3469 78.1232 19.7186 77.7896 19.0967C77.456 18.4749 77.1094 17.8531 76.7431 17.2313C76.6122 17.2443 76.4814 17.2574 76.3506 17.2705C76.2198 17.2836 76.0824 17.2967 75.9451 17.3098C75.8077 17.3229 75.6703 17.3294 75.5264 17.3294C75.3825 17.3294 75.2386 17.3294 75.0882 17.3294V20.9753H72.3345V9.35693H72.3279ZM75.0751 15.1498H75.7488C76.7234 15.1498 77.456 14.9796 77.9401 14.6458C78.4241 14.3119 78.6726 13.8603 78.6726 13.2974C78.6726 13.029 78.6138 12.7934 78.496 12.5773C78.3783 12.3613 78.2017 12.1715 77.9597 12.0144C77.7177 11.8573 77.4168 11.733 77.0505 11.6479C76.6842 11.5628 76.2525 11.517 75.7554 11.517H75.0686V15.1498H75.0751Z" fill="#103350"/>
<path d="M96.5679 19.9611C96.0577 20.3473 95.469 20.6484 94.8149 20.8644C94.1543 21.0804 93.4282 21.1917 92.6237 21.1917C91.7537 21.1917 90.9623 21.0542 90.2493 20.7793C89.5429 20.5044 88.9346 20.1051 88.4309 19.5945C87.9273 19.0774 87.5348 18.4556 87.2601 17.7225C86.9854 16.9894 86.848 16.1647 86.848 15.2417C86.848 14.2664 86.9985 13.4024 87.3059 12.6497C87.6068 11.8969 88.0254 11.262 88.5618 10.7384C89.0916 10.2213 89.7195 9.82854 90.439 9.56017C91.1585 9.2918 91.9303 9.16089 92.7545 9.16089C93.4348 9.16089 94.0562 9.24598 94.6187 9.40962C95.1812 9.57326 95.6783 9.82199 96.1166 10.1558L95.4625 12.3486C94.756 11.7857 93.9123 11.4977 92.9377 11.4977C92.4863 11.4977 92.0612 11.5762 91.6622 11.7268C91.2632 11.8773 90.9165 12.1064 90.6221 12.414C90.3278 12.7151 90.0923 13.1013 89.9223 13.5595C89.7522 14.0177 89.6672 14.5479 89.6672 15.1501C89.6672 15.7196 89.7457 16.2301 89.8961 16.6883C90.0465 17.1465 90.2689 17.5327 90.5633 17.8534C90.8511 18.1741 91.2043 18.4163 91.6164 18.5931C92.0285 18.7698 92.4929 18.8549 93.0096 18.8549C93.6048 18.8549 94.1346 18.7698 94.6121 18.5865C95.0831 18.4098 95.5344 18.1349 95.9596 17.7683L96.581 19.9807L96.5679 19.9611Z" fill="#103350"/>
<path d="M107.335 9.15405C108.139 9.15405 108.911 9.27841 109.644 9.53369C110.377 9.78897 111.024 10.1621 111.58 10.6661C112.136 11.1701 112.587 11.7854 112.921 12.5316C113.255 13.2712 113.425 14.1287 113.425 15.104C113.425 16.0793 113.255 16.976 112.921 17.7353C112.581 18.4946 112.129 19.1295 111.56 19.6466C110.991 20.1637 110.331 20.5499 109.572 20.8052C108.813 21.067 108.015 21.1914 107.178 21.1914C106.341 21.1914 105.602 21.067 104.869 20.8117C104.136 20.5564 103.489 20.1833 102.933 19.6793C102.377 19.1753 101.932 18.56 101.599 17.8138C101.265 17.0742 101.095 16.2102 101.095 15.2283C101.095 14.2465 101.265 13.3629 101.599 12.6101C101.939 11.8508 102.39 11.2159 102.953 10.6988C103.522 10.1817 104.182 9.79552 104.934 9.54024C105.687 9.28496 106.491 9.15405 107.328 9.15405H107.335ZM107.224 11.5039C106.792 11.5039 106.38 11.5825 105.981 11.7396C105.582 11.8966 105.229 12.1323 104.921 12.4399C104.614 12.7476 104.372 13.1272 104.182 13.5789C103.999 14.0305 103.907 14.5476 103.907 15.1367C103.907 15.7585 103.999 16.3018 104.182 16.7535C104.365 17.2117 104.614 17.5978 104.928 17.9055C105.242 18.2131 105.602 18.4488 106.02 18.5993C106.432 18.7564 106.864 18.8284 107.315 18.8284C107.734 18.8284 108.139 18.7499 108.538 18.5928C108.937 18.4357 109.291 18.2066 109.598 17.8989C109.906 17.5978 110.154 17.2182 110.337 16.7666C110.527 16.3149 110.619 15.7978 110.619 15.2087C110.619 14.6196 110.527 14.0567 110.344 13.592C110.161 13.1272 109.912 12.741 109.598 12.4334C109.284 12.1257 108.924 11.8966 108.506 11.733C108.094 11.5759 107.669 11.4974 107.224 11.4974V11.5039Z" fill="#103350"/>
<path d="M119.502 18.0039C119.973 18.305 120.45 18.5275 120.934 18.6715C121.418 18.8155 121.922 18.8941 122.439 18.8941C122.727 18.8941 122.975 18.8744 123.198 18.8286C123.413 18.7828 123.597 18.7173 123.747 18.6257C123.891 18.5341 124.002 18.4293 124.081 18.2919C124.153 18.161 124.192 18.0039 124.192 17.8271C124.192 17.6111 124.113 17.4148 123.956 17.238C123.799 17.0613 123.597 16.9042 123.341 16.7602C123.086 16.6162 122.799 16.4787 122.478 16.3413C122.151 16.2038 121.824 16.0598 121.484 15.9093C121.144 15.7587 120.81 15.582 120.49 15.3791C120.163 15.1827 119.875 14.9536 119.626 14.6918C119.371 14.43 119.168 14.1354 119.011 13.7951C118.854 13.4547 118.776 13.062 118.776 12.6038C118.776 12.0539 118.881 11.563 119.083 11.1376C119.286 10.7121 119.58 10.3455 119.953 10.0445C120.326 9.74335 120.777 9.5208 121.301 9.37025C121.824 9.2197 122.413 9.14771 123.06 9.14771C123.708 9.14771 124.283 9.21971 124.852 9.35716C125.421 9.49462 125.938 9.70408 126.416 9.97899L125.768 12.1914C125.336 11.9558 124.911 11.7659 124.486 11.635C124.061 11.5041 123.623 11.4321 123.184 11.4321C122.923 11.4321 122.694 11.4517 122.491 11.491C122.288 11.5303 122.118 11.5957 121.987 11.6743C121.85 11.7594 121.745 11.8576 121.68 11.9819C121.615 12.1063 121.575 12.2438 121.575 12.4009C121.575 12.6103 121.654 12.8001 121.804 12.9572C121.955 13.1143 122.164 13.2714 122.419 13.4154C122.674 13.5594 122.962 13.6969 123.289 13.8278C123.61 13.9587 123.943 14.1027 124.277 14.2598C124.61 14.4103 124.937 14.5871 125.264 14.79C125.585 14.9864 125.879 15.222 126.128 15.4838C126.383 15.7522 126.586 16.0598 126.743 16.4067C126.9 16.7537 126.978 17.1595 126.978 17.6177C126.978 18.2002 126.874 18.7108 126.664 19.1559C126.455 19.601 126.154 19.9741 125.768 20.2752C125.382 20.5763 124.918 20.8054 124.375 20.9625C123.832 21.1196 123.217 21.1916 122.537 21.1916C121.857 21.1916 121.163 21.1065 120.548 20.9428C119.934 20.7792 119.384 20.5436 118.907 20.2359L119.522 18.0039H119.502Z" fill="#103350"/>
<path d="M54.5759 26.2506C54.8113 26.2309 55.0403 26.2178 55.2627 26.2047C55.4851 26.1917 55.6878 26.1917 55.8644 26.1917C56.3681 26.1917 56.8194 26.244 57.225 26.3357C57.624 26.4338 57.9641 26.5778 58.2388 26.7677C58.5135 26.9575 58.7294 27.18 58.8798 27.4484C59.0303 27.7168 59.1022 28.0113 59.1022 28.3517C59.1022 28.607 59.063 28.8426 58.9845 29.0586C58.906 29.2746 58.7948 29.471 58.6443 29.6477C58.4939 29.8244 58.3108 29.975 58.0949 30.1059C57.8791 30.2368 57.6305 30.3415 57.3558 30.4266C57.6697 30.8848 57.9837 31.3758 58.3042 31.8863C58.6182 32.4034 58.9256 32.9336 59.2265 33.49H58.2323C57.9772 33.0318 57.6959 32.5605 57.395 32.0696C57.0941 31.5852 56.7802 31.1074 56.4531 30.6361C56.3092 30.6557 56.1588 30.6623 55.9953 30.6623C55.8317 30.6623 55.6617 30.6623 55.4916 30.6557V33.4834H54.589V26.2506H54.5759ZM55.4851 29.8964C55.5766 29.8964 55.6682 29.8965 55.7532 29.903C55.8383 29.903 55.9233 29.903 56.0083 29.903C56.3485 29.903 56.6494 29.8703 56.9175 29.7983C57.1857 29.7328 57.4081 29.6281 57.5912 29.5037C57.7744 29.3794 57.9118 29.2157 58.0099 29.0324C58.108 28.8492 58.1538 28.6397 58.1538 28.4041C58.1538 28.1684 58.1014 27.9721 58.0033 27.7953C57.9052 27.6186 57.7613 27.468 57.5782 27.3371C57.395 27.2128 57.1661 27.1146 56.8914 27.0491C56.6167 26.9837 56.3092 26.9509 55.9691 26.9509C55.8971 26.9509 55.8187 26.9509 55.7336 26.9509C55.6486 26.9509 55.5636 26.9509 55.4785 26.964V29.8899L55.4851 29.8964Z" fill="#103350"/>
<path d="M65.6828 28.4435H63.2037V30.165H65.48V30.9046H63.2037V32.7374H65.6828V33.477H62.3534V27.7039H65.6828V28.4501V28.4435Z" fill="#103350"/>
<path d="M75.1277 27.7036C75.2193 28.2272 75.2978 28.7378 75.3697 29.2221C75.4417 29.7131 75.5005 30.1909 75.5463 30.6687C75.5921 31.1465 75.6379 31.6113 75.6706 32.076C75.7033 32.5407 75.7295 33.0055 75.7556 33.4768H74.8791C74.8595 33.0513 74.8334 32.6324 74.8072 32.22C74.781 31.8076 74.7483 31.3887 74.7091 30.9829C74.6698 30.5771 74.624 30.1647 74.5717 29.7589C74.5194 29.3531 74.4605 28.9538 74.3951 28.5479L72.7272 33.4768H71.8049L70.1435 28.5349C70.0781 28.9407 70.0127 29.34 69.9603 29.7458C69.908 30.1516 69.8622 30.5574 69.823 30.9698C69.7837 31.3822 69.7445 31.7946 69.7183 32.2135C69.6922 32.6258 69.666 33.0513 69.6529 33.4702H68.8157C68.8353 32.9989 68.8549 32.5342 68.8876 32.0695C68.9203 31.6047 68.9596 31.14 69.0119 30.6622C69.0642 30.1843 69.1231 29.7065 69.1885 29.2156C69.2539 28.7247 69.339 28.2207 69.4305 27.697H70.6537L72.2824 32.4884L73.9111 27.697H75.1277V27.7036Z" fill="#103350"/>
<path d="M81.7737 27.6121C82.1596 27.6121 82.5259 27.6775 82.8726 27.8019C83.2192 27.9262 83.5332 28.1161 83.8014 28.3648C84.0696 28.6135 84.2854 28.9212 84.4489 29.2877C84.6124 29.6543 84.6909 30.0797 84.6909 30.5641C84.6909 31.0485 84.6059 31.4805 84.4424 31.8536C84.2789 32.2267 84.0565 32.5409 83.7883 32.7962C83.5136 33.0514 83.1996 33.2412 82.8399 33.3722C82.4801 33.5031 82.1073 33.5685 81.7213 33.5685C81.3354 33.5685 80.9691 33.5031 80.6225 33.3787C80.2693 33.2543 79.9618 33.0645 79.6937 32.8158C79.4255 32.5671 79.2096 32.2529 79.0526 31.8929C78.8891 31.5263 78.8106 31.1008 78.8106 30.6165C78.8106 30.1321 78.8891 29.7001 79.0526 29.327C79.2162 28.9539 79.432 28.6397 79.7067 28.3844C79.9815 28.1292 80.2954 27.9393 80.6552 27.8084C81.0149 27.6775 81.3878 27.6121 81.7802 27.6121H81.7737ZM81.7279 28.3648C81.4728 28.3648 81.2242 28.4106 80.9822 28.5088C80.7402 28.607 80.5244 28.751 80.3347 28.9343C80.145 29.1241 79.9945 29.3532 79.8768 29.6281C79.7656 29.903 79.7067 30.2172 79.7067 30.5707C79.7067 30.9438 79.7656 31.2645 79.8768 31.5459C79.988 31.8274 80.145 32.063 80.3347 32.2529C80.5244 32.4427 80.7402 32.5801 80.9953 32.6783C81.2439 32.77 81.5055 32.8158 81.7737 32.8158C82.0222 32.8158 82.2708 32.77 82.5128 32.6718C82.7548 32.5736 82.9707 32.4361 83.1604 32.2463C83.35 32.0565 83.5005 31.8274 83.6182 31.5525C83.736 31.2776 83.7948 30.9634 83.7948 30.6099C83.7948 30.2565 83.736 29.9161 83.6248 29.6346C83.5136 29.3532 83.3566 29.1175 83.1734 28.9277C82.9838 28.7379 82.7614 28.5939 82.5128 28.5022C82.2643 28.4041 82.0026 28.3583 81.7344 28.3583L81.7279 28.3648Z" fill="#103350"/>
<path d="M88.0073 27.7031C88.112 27.6966 88.2166 27.69 88.3147 27.6835C88.4128 27.6835 88.511 27.6769 88.6025 27.6704C88.6941 27.6704 88.7857 27.6704 88.8773 27.6638C88.9688 27.6638 89.0669 27.6638 89.1651 27.6638C89.7603 27.6638 90.2966 27.7293 90.7611 27.8602C91.232 27.9911 91.6245 28.1744 91.9515 28.4166C92.2786 28.6588 92.5206 28.9533 92.6972 29.3068C92.8672 29.6602 92.9523 30.053 92.9523 30.4915C92.9523 30.9693 92.8672 31.3948 92.6906 31.7679C92.514 32.1475 92.2655 32.4617 91.9384 32.7236C91.6114 32.9854 91.2124 33.1817 90.7414 33.3192C90.2705 33.4566 89.7407 33.5221 89.152 33.5221C89.0539 33.5221 88.9557 33.5221 88.8642 33.5221C88.7726 33.5221 88.681 33.5221 88.5895 33.5156C88.4979 33.5156 88.4063 33.509 88.3082 33.5025C88.2101 33.5025 88.112 33.4894 88.0138 33.4828V27.7096L88.0073 27.7031ZM88.8773 32.7563C88.9557 32.7563 89.0342 32.7563 89.1127 32.7563H89.3482C89.7668 32.7563 90.1397 32.7039 90.4733 32.6057C90.8068 32.5075 91.0881 32.3635 91.3236 32.1737C91.5525 31.9839 91.7291 31.7483 91.8534 31.4733C91.9777 31.1984 92.0365 30.8842 92.0365 30.5373C92.0365 30.1904 91.9777 29.9024 91.8534 29.6406C91.7291 29.3788 91.5525 29.1562 91.317 28.9729C91.0816 28.7897 90.8003 28.6522 90.4667 28.554C90.1331 28.4558 89.7537 28.41 89.322 28.41H89.0931C89.0212 28.41 88.9427 28.41 88.8642 28.4231V32.7563H88.8773Z" fill="#103350"/>
<path d="M99.5711 28.4435H97.0921V30.165H99.3684V30.9046H97.0921V32.7374H99.5711V33.477H96.2418V27.7039H99.5711V28.4501V28.4435Z" fill="#103350"/>
<path d="M102.901 27.7039H103.771V32.7243H106.152V33.477H102.901V27.7039Z" fill="#103350"/>
<path d="M109.946 33.477H109.076V27.7039H109.946V33.477Z" fill="#103350"/>
<path d="M118.54 33.477H117.48L114.694 29.3075C114.635 29.2224 114.583 29.1373 114.537 29.0457C114.491 28.9541 114.445 28.869 114.4 28.7773C114.406 28.869 114.413 28.9606 114.413 29.0457C114.413 29.1308 114.413 29.2224 114.413 29.3075V33.477H113.621V27.7039H114.681L117.474 31.8734C117.533 31.9585 117.585 32.0436 117.631 32.1287C117.677 32.2138 117.722 32.2988 117.768 32.3905C117.755 32.3054 117.749 32.2138 117.749 32.1287C117.749 32.0436 117.749 31.9519 117.749 31.8668V27.7039H118.547V33.477H118.54Z" fill="#103350"/>
<path d="M126.88 33.0972C126.585 33.2543 126.265 33.3722 125.918 33.4507C125.572 33.5293 125.205 33.5685 124.819 33.5685C124.388 33.5685 123.982 33.5031 123.616 33.3787C123.249 33.2543 122.929 33.0645 122.661 32.8158C122.393 32.5671 122.183 32.2594 122.033 31.8929C121.882 31.5263 121.804 31.1074 121.804 30.6361C121.804 30.3023 121.843 29.9946 121.915 29.7197C121.987 29.4383 122.098 29.1895 122.236 28.967C122.373 28.7444 122.537 28.5481 122.726 28.3779C122.916 28.2077 123.125 28.0637 123.354 27.9524C123.583 27.8411 123.825 27.7561 124.087 27.6971C124.348 27.6382 124.617 27.6121 124.891 27.6121C125.271 27.6121 125.624 27.6644 125.957 27.7757C126.291 27.887 126.585 28.0375 126.854 28.2273L126.592 28.9081C126.468 28.823 126.343 28.7444 126.206 28.6724C126.069 28.607 125.931 28.5481 125.794 28.5022C125.657 28.4564 125.506 28.4237 125.356 28.3975C125.205 28.3713 125.055 28.3648 124.904 28.3648C124.617 28.3648 124.342 28.4106 124.08 28.5022C123.819 28.5939 123.583 28.7313 123.38 28.9146C123.178 29.0979 123.014 29.327 122.89 29.6085C122.765 29.8899 122.707 30.2237 122.707 30.6034C122.707 30.983 122.765 31.2907 122.877 31.5721C122.988 31.8536 123.145 32.0827 123.335 32.2725C123.531 32.4558 123.76 32.5998 124.028 32.6914C124.296 32.7831 124.584 32.8289 124.891 32.8289C125.107 32.8289 125.31 32.8092 125.5 32.7765C125.689 32.7438 125.872 32.6849 126.042 32.6063V31.1008H124.505V30.3939H126.886V33.1038L126.88 33.0972Z" fill="#103350"/>
</svg>
