<svg xmlns="http://www.w3.org/2000/svg" width="225" height="71" viewBox="0 0 225 71" fill="none">
  <path d="M65.3371 35.2472L57.3185 56.8916C51.3421 49.4614 42.1812 44.7079 31.9013 44.7079C27.817 44.7079 23.9058 45.4579 20.3061 46.8193L31.9013 15.5411L39.2161 35.2587H50.7306L37.6701 0H26.1441L0 70.5059C0 70.5059 11.5375 70.4597 11.5491 70.4482C13.522 61.0912 21.8982 54.0303 31.9013 54.0303C41.9159 54.0303 50.2691 61.0912 52.265 70.5059H52.2766H63.7911L76.8631 35.2587H65.3371V35.2472Z" fill="#BEC01B"/>
  <path d="M110.276 11.2842C111.96 15.5069 113.46 19.7758 114.787 24.1024C116.114 28.429 117.187 32.6978 118.017 36.9206H112.872C112.71 36.0783 112.549 35.2246 112.376 34.3708C112.202 33.5055 112.006 32.6402 111.787 31.7633H102.43C102.211 32.6402 102.015 33.5055 101.83 34.3708C101.646 35.2361 101.484 36.0783 101.323 36.9206H96.3037C97.1344 32.6978 98.2189 28.429 99.5458 24.1024C100.884 19.7758 102.372 15.5069 104.034 11.2842H110.253H110.276ZM110.76 27.679C110.23 25.7407 109.664 23.8255 109.053 21.9333C108.441 20.0412 107.784 18.1721 107.08 16.3376C106.411 18.1721 105.765 20.0412 105.13 21.9333C104.507 23.8255 103.93 25.7407 103.422 27.679H110.76Z" fill="#103350"/>
  <path d="M127.617 16.4414C128.563 16.3838 129.486 16.3376 130.363 16.303C131.239 16.2684 131.989 16.2568 132.601 16.2568C134.458 16.2568 136.074 16.4184 137.458 16.7299C138.843 17.0414 140.008 17.4914 140.954 18.0798C141.889 18.6682 142.604 19.3951 143.089 20.2488C143.573 21.1026 143.815 22.0718 143.815 23.1678C143.815 24.4023 143.515 25.5099 142.904 26.4906C142.292 27.4598 141.381 28.2674 140.158 28.9135C140.919 30.1826 141.646 31.4864 142.339 32.8017C143.031 34.1169 143.712 35.4899 144.358 36.9206H138.923C138.393 35.813 137.839 34.7054 137.251 33.6093C136.662 32.5132 136.051 31.4172 135.405 30.3211C135.174 30.3442 134.943 30.3672 134.712 30.3903C134.482 30.4134 134.239 30.4365 133.997 30.4595C133.755 30.4826 133.512 30.4942 133.259 30.4942C133.005 30.4942 132.751 30.4942 132.486 30.4942V36.9206H127.628V16.4414H127.617ZM132.462 26.6522H133.651C135.37 26.6522 136.662 26.3522 137.516 25.7638C138.37 25.1754 138.808 24.3793 138.808 23.387C138.808 22.914 138.704 22.4986 138.497 22.1179C138.289 21.7372 137.977 21.4026 137.551 21.1257C137.124 20.8488 136.593 20.6296 135.947 20.4796C135.301 20.3296 134.539 20.2488 133.662 20.2488H132.451V26.6522H132.462Z" fill="#103350"/>
  <path d="M170.375 35.1317C169.475 35.8124 168.436 36.3431 167.283 36.7238C166.117 37.1046 164.837 37.3007 163.418 37.3007C161.883 37.3007 160.487 37.0584 159.23 36.5738C157.983 36.0893 156.91 35.3855 156.022 34.4856C155.134 33.5741 154.441 32.478 153.957 31.1858C153.472 29.8936 153.23 28.4399 153.23 26.8131C153.23 25.094 153.495 23.571 154.038 22.2442C154.568 20.9174 155.307 19.7983 156.253 18.8753C157.187 17.9638 158.295 17.2716 159.564 16.7985C160.833 16.3255 162.195 16.0947 163.648 16.0947C164.848 16.0947 165.944 16.2447 166.937 16.5332C167.929 16.8216 168.806 17.26 169.579 17.8484L168.425 21.7135C167.179 20.7213 165.691 20.2136 163.971 20.2136C163.175 20.2136 162.425 20.3521 161.722 20.6174C161.018 20.8828 160.406 21.2866 159.887 21.8289C159.368 22.3596 158.953 23.0403 158.653 23.848C158.353 24.6556 158.203 25.5901 158.203 26.6516C158.203 27.6553 158.341 28.5553 158.606 29.3629C158.872 30.1705 159.264 30.8512 159.783 31.4166C160.291 31.9819 160.914 32.4088 161.641 32.7203C162.368 33.0318 163.187 33.1818 164.098 33.1818C165.148 33.1818 166.083 33.0318 166.925 32.7088C167.756 32.3973 168.552 31.9127 169.302 31.2666L170.398 35.1663L170.375 35.1317Z" fill="#103350"/>
  <path d="M189.365 16.084C190.785 16.084 192.146 16.3032 193.438 16.7532C194.73 17.2031 195.873 17.8608 196.853 18.7492C197.834 19.6375 198.63 20.7221 199.219 22.0373C199.807 23.3411 200.107 24.8525 200.107 26.5716C200.107 28.2907 199.807 29.8713 199.219 31.2097C198.619 32.548 197.822 33.6672 196.819 34.5786C195.815 35.4901 194.65 36.1708 193.311 36.6208C191.973 37.0823 190.565 37.3015 189.089 37.3015C187.612 37.3015 186.308 37.0823 185.016 36.6323C183.724 36.1824 182.581 35.5247 181.601 34.6363C180.62 33.7479 179.835 32.6634 179.247 31.3481C178.659 30.0444 178.359 28.5214 178.359 26.7908C178.359 25.0602 178.659 23.5026 179.247 22.1758C179.847 20.8374 180.643 19.7183 181.635 18.8068C182.639 17.8954 183.804 17.2147 185.131 16.7647C186.458 16.3147 187.877 16.084 189.354 16.084H189.365ZM189.169 20.226C188.408 20.226 187.681 20.3644 186.977 20.6413C186.273 20.9182 185.65 21.3336 185.108 21.8758C184.566 22.4181 184.139 23.0873 183.804 23.8834C183.481 24.6794 183.32 25.5909 183.32 26.6293C183.32 27.7254 183.481 28.683 183.804 29.4791C184.127 30.2867 184.566 30.9674 185.12 31.5097C185.673 32.0519 186.308 32.4673 187.046 32.7326C187.773 33.0095 188.535 33.1365 189.331 33.1365C190.069 33.1365 190.785 32.998 191.488 32.7211C192.192 32.4442 192.815 32.0404 193.357 31.4981C193.9 30.9674 194.338 30.2982 194.661 29.5021C194.996 28.706 195.157 27.7946 195.157 26.7562C195.157 25.7178 194.996 24.7256 194.673 23.9064C194.35 23.0873 193.911 22.4065 193.357 21.8643C192.804 21.322 192.169 20.9182 191.431 20.6298C190.704 20.3529 189.954 20.2144 189.169 20.2144V20.226Z" fill="#103350"/>
  <path d="M210.825 31.6825C211.656 32.2133 212.498 32.6055 213.352 32.8594C214.206 33.1132 215.094 33.2517 216.006 33.2517C216.513 33.2517 216.952 33.217 217.344 33.1363C217.725 33.0555 218.048 32.9401 218.313 32.7786C218.567 32.6171 218.763 32.4325 218.902 32.1902C219.029 31.9595 219.098 31.6826 219.098 31.371C219.098 30.9903 218.959 30.6442 218.682 30.3327C218.406 30.0211 218.048 29.7442 217.598 29.4904C217.148 29.2366 216.64 28.9943 216.075 28.752C215.498 28.5097 214.921 28.2559 214.321 27.9905C213.721 27.7252 213.133 27.4137 212.568 27.056C211.991 26.7099 211.483 26.3061 211.045 25.8446C210.595 25.3831 210.237 24.8639 209.96 24.2639C209.683 23.664 209.545 22.9717 209.545 22.1641C209.545 21.1949 209.729 20.3296 210.087 19.5797C210.445 18.8297 210.964 18.1836 211.621 17.6529C212.279 17.1222 213.075 16.7299 213.998 16.4645C214.921 16.1992 215.96 16.0723 217.102 16.0723C218.244 16.0723 219.259 16.1992 220.263 16.4415C221.267 16.6838 222.178 17.053 223.021 17.5375L221.878 21.4372C221.117 21.0219 220.367 20.6873 219.617 20.4565C218.867 20.2258 218.094 20.0989 217.321 20.0989C216.859 20.0989 216.456 20.1335 216.098 20.2027C215.74 20.2719 215.44 20.3873 215.21 20.5258C214.967 20.6757 214.783 20.8488 214.667 21.068C214.552 21.2872 214.483 21.5295 214.483 21.8064C214.483 22.1756 214.621 22.5102 214.887 22.7871C215.152 23.064 215.521 23.3409 215.971 23.5947C216.421 23.8486 216.929 24.0909 217.506 24.3216C218.071 24.5524 218.659 24.8062 219.248 25.0831C219.836 25.3484 220.413 25.66 220.99 26.0176C221.555 26.3637 222.074 26.7791 222.513 27.2406C222.963 27.7136 223.321 28.2559 223.597 28.8674C223.874 29.4789 224.013 30.1942 224.013 31.0018C224.013 32.0287 223.828 32.9286 223.459 33.7132C223.09 34.4977 222.559 35.1553 221.878 35.6861C221.198 36.2168 220.378 36.6206 219.421 36.8975C218.463 37.1744 217.379 37.3013 216.179 37.3013C214.979 37.3013 213.756 37.1513 212.671 36.8629C211.587 36.5745 210.618 36.1591 209.775 35.6169L210.86 31.6825H210.825Z" fill="#103350"/>
  <path d="M96.4307 46.3001C96.846 46.2655 97.2498 46.2424 97.6421 46.2194C98.0344 46.1963 98.392 46.1963 98.7036 46.1963C99.592 46.1963 100.388 46.2886 101.103 46.4501C101.807 46.6232 102.407 46.877 102.892 47.2116C103.376 47.5462 103.757 47.9385 104.022 48.4115C104.288 48.8845 104.415 49.4037 104.415 50.0037C104.415 50.4536 104.345 50.869 104.207 51.2497C104.069 51.6305 103.872 51.9766 103.607 52.2881C103.342 52.5996 103.019 52.865 102.638 53.0957C102.257 53.3265 101.819 53.5111 101.334 53.6611C101.888 54.4687 102.442 55.334 103.007 56.234C103.561 57.1454 104.103 58.08 104.634 59.0606H102.88C102.43 58.253 101.934 57.4223 101.403 56.557C100.873 55.7032 100.319 54.861 99.7419 54.0303C99.4881 54.0649 99.2227 54.0764 98.9343 54.0764C98.6459 54.0764 98.3459 54.0764 98.0459 54.0649V59.0491H96.4537V46.3001H96.4307ZM98.0344 52.7265C98.1959 52.7265 98.3574 52.7265 98.5074 52.7381C98.6574 52.7381 98.8074 52.7381 98.9574 52.7381C99.5573 52.7381 100.088 52.6804 100.561 52.5535C101.034 52.4381 101.426 52.2535 101.749 52.0343C102.073 51.8151 102.315 51.5266 102.488 51.2036C102.661 50.8805 102.742 50.5113 102.742 50.096C102.742 49.6806 102.649 49.3345 102.476 49.023C102.303 48.7115 102.049 48.4461 101.726 48.2154C101.403 47.9961 101 47.8231 100.515 47.7077C100.03 47.5923 99.4881 47.5346 98.8882 47.5346C98.7613 47.5346 98.6228 47.5346 98.4728 47.5346C98.3228 47.5346 98.1728 47.5347 98.0228 47.5577V52.715L98.0344 52.7265Z" fill="#103350"/>
  <path d="M116.022 50.166H111.649V53.2004H115.664V54.5042H111.649V57.7347H116.022V59.0384H110.149V48.8623H116.022V50.1776V50.166Z" fill="#103350"/>
  <path d="M132.682 48.8612C132.843 49.7842 132.982 50.6841 133.108 51.5379C133.235 52.4032 133.339 53.2454 133.42 54.0877C133.501 54.9299 133.581 55.7491 133.639 56.5682C133.697 57.3874 133.743 58.2066 133.789 59.0373H132.243C132.209 58.2873 132.162 57.5489 132.116 56.822C132.07 56.0952 132.012 55.3568 131.943 54.6415C131.874 53.9261 131.793 53.1993 131.701 52.4839C131.609 51.7686 131.505 51.0648 131.389 50.3495L128.447 59.0373H126.82L123.89 50.3264C123.775 51.0417 123.659 51.7455 123.567 52.4609C123.475 53.1762 123.394 53.8915 123.325 54.6184C123.255 55.3452 123.186 56.0721 123.14 56.8105C123.094 57.5374 123.048 58.2873 123.025 59.0257H121.548C121.582 58.195 121.617 57.3759 121.675 56.5567C121.732 55.7375 121.802 54.9184 121.894 54.0761C121.986 53.2339 122.09 52.3916 122.205 51.5263C122.321 50.661 122.471 49.7726 122.632 48.8496H124.79L127.663 57.2951L130.536 48.8496H132.682V48.8612Z" fill="#103350"/>
  <path d="M144.404 48.7002C145.084 48.7002 145.731 48.8156 146.342 49.0348C146.954 49.254 147.507 49.5886 147.98 50.027C148.453 50.4654 148.834 51.0077 149.123 51.6538C149.411 52.2999 149.549 53.0498 149.549 53.9036C149.549 54.7574 149.4 55.5189 149.111 56.1765C148.823 56.8342 148.43 57.388 147.957 57.8379C147.473 58.2879 146.919 58.6225 146.284 58.8532C145.65 59.084 144.992 59.1993 144.311 59.1993C143.631 59.1993 142.985 59.084 142.373 58.8648C141.75 58.6455 141.208 58.311 140.735 57.8725C140.262 57.4341 139.881 56.8803 139.604 56.2457C139.316 55.5996 139.177 54.8497 139.177 53.9959C139.177 53.1421 139.316 52.3807 139.604 51.723C139.893 51.0654 140.273 50.5116 140.758 50.0616C141.242 49.6117 141.796 49.2771 142.431 49.0463C143.065 48.8156 143.723 48.7002 144.415 48.7002H144.404ZM144.323 50.027C143.873 50.027 143.435 50.1078 143.008 50.2808C142.581 50.4539 142.2 50.7077 141.865 51.0308C141.531 51.3654 141.266 51.7692 141.058 52.2537C140.862 52.7383 140.758 53.2921 140.758 53.9151C140.758 54.5728 140.862 55.1381 141.058 55.6342C141.254 56.1304 141.531 56.5457 141.865 56.8803C142.2 57.2149 142.581 57.4572 143.031 57.6302C143.469 57.7918 143.931 57.8725 144.404 57.8725C144.842 57.8725 145.281 57.7918 145.707 57.6187C146.134 57.4456 146.515 57.2033 146.85 56.8688C147.184 56.5342 147.45 56.1304 147.657 55.6458C147.865 55.1612 147.969 54.6074 147.969 53.9844C147.969 53.3613 147.865 52.7614 147.669 52.2653C147.473 51.7692 147.196 51.3538 146.873 51.0192C146.538 50.6846 146.146 50.4308 145.707 50.2693C145.269 50.0962 144.808 50.0155 144.335 50.0155L144.323 50.027Z" fill="#103350"/>
  <path d="M155.399 48.8612C155.584 48.8497 155.768 48.8381 155.941 48.8266C156.114 48.8266 156.287 48.8151 156.449 48.8035C156.61 48.8035 156.772 48.8035 156.933 48.792C157.095 48.792 157.268 48.792 157.441 48.792C158.491 48.792 159.437 48.9074 160.256 49.1381C161.087 49.3689 161.779 49.6919 162.356 50.1188C162.933 50.5457 163.36 51.0649 163.671 51.6879C163.971 52.311 164.121 53.0032 164.121 53.7762C164.121 54.6185 163.971 55.3684 163.66 56.026C163.348 56.6952 162.91 57.249 162.333 57.7105C161.756 58.172 161.052 58.5181 160.222 58.7604C159.391 59.0027 158.456 59.1181 157.418 59.1181C157.245 59.1181 157.072 59.1181 156.91 59.1181C156.749 59.1181 156.587 59.1181 156.426 59.1065C156.264 59.1065 156.103 59.095 155.93 59.0835C155.757 59.0835 155.584 59.0604 155.41 59.0489V48.8728L155.399 48.8612ZM156.933 57.7682C157.072 57.7682 157.21 57.7682 157.349 57.7682H157.764C158.503 57.7682 159.16 57.6759 159.749 57.5028C160.337 57.3298 160.833 57.0759 161.248 56.7414C161.652 56.4068 161.964 55.9914 162.183 55.5068C162.402 55.0223 162.506 54.4685 162.506 53.857C162.506 53.2455 162.402 52.7378 162.183 52.2763C161.964 51.8148 161.652 51.4225 161.237 51.0995C160.822 50.7764 160.325 50.5342 159.737 50.3611C159.149 50.188 158.479 50.1073 157.718 50.1073H157.314C157.187 50.1073 157.049 50.1073 156.91 50.1304V57.7682H156.933Z" fill="#103350"/>
  <path d="M175.797 50.166H171.425V53.2004H175.44V54.5042H171.425V57.7347H175.797V59.0384H169.925V48.8623H175.797V50.1776V50.166Z" fill="#103350"/>
  <path d="M181.67 48.8623H183.204V57.7116H187.404V59.0384H181.67V48.8623Z" fill="#103350"/>
  <path d="M194.096 59.0384H192.562V48.8623H194.096V59.0384Z" fill="#103350"/>
  <path d="M209.256 59.0384H207.387L202.472 51.689C202.368 51.539 202.276 51.389 202.195 51.2275C202.115 51.066 202.034 50.916 201.953 50.7545C201.965 50.916 201.976 51.0775 201.976 51.2275C201.976 51.3775 201.976 51.539 201.976 51.689V59.0384H200.58V48.8623H202.449L207.376 56.2117C207.48 56.3617 207.572 56.5117 207.653 56.6617C207.733 56.8117 207.814 56.9616 207.895 57.1232C207.872 56.9732 207.86 56.8117 207.86 56.6617C207.86 56.5117 207.86 56.3502 207.86 56.2002V48.8623H209.268V59.0384H209.256Z" fill="#103350"/>
  <path d="M223.967 58.3686C223.447 58.6455 222.882 58.8532 222.271 58.9917C221.659 59.1301 221.013 59.1993 220.332 59.1993C219.571 59.1993 218.855 59.084 218.209 58.8648C217.563 58.6455 216.998 58.311 216.525 57.8725C216.052 57.4341 215.683 56.8918 215.417 56.2457C215.152 55.5996 215.013 54.8612 215.013 54.0305C215.013 53.4421 215.083 52.8998 215.21 52.4153C215.336 51.9192 215.533 51.4807 215.775 51.0885C216.017 50.6962 216.306 50.3501 216.64 50.0501C216.975 49.7501 217.344 49.4963 217.748 49.3001C218.152 49.104 218.579 48.954 219.04 48.8502C219.502 48.7463 219.975 48.7002 220.459 48.7002C221.128 48.7002 221.751 48.7925 222.34 48.9886C222.928 49.1848 223.447 49.4501 223.92 49.7847L223.459 50.9846C223.24 50.8346 223.02 50.6962 222.778 50.5693C222.536 50.4539 222.294 50.35 222.051 50.2693C221.809 50.1885 221.544 50.1308 221.278 50.0847C221.013 50.0385 220.748 50.027 220.482 50.027C219.975 50.027 219.49 50.1078 219.028 50.2693C218.567 50.4308 218.152 50.6731 217.794 50.9962C217.436 51.3192 217.148 51.723 216.929 52.2191C216.709 52.7152 216.606 53.3037 216.606 53.9728C216.606 54.642 216.709 55.1843 216.906 55.6804C217.102 56.1765 217.379 56.5803 217.713 56.9149C218.059 57.238 218.463 57.4918 218.936 57.6533C219.409 57.8148 219.917 57.8956 220.459 57.8956C220.84 57.8956 221.198 57.861 221.532 57.8033C221.867 57.7456 222.19 57.6418 222.49 57.5033V54.8497H219.778V53.6036H223.978V58.3802L223.967 58.3686Z" fill="#103350"/>
</svg>