<svg width="265" height="99" viewBox="0 0 265 99" fill="none" xmlns="http://www.w3.org/2000/svg">
<path d="M28.9402 6.10352e-05C32.4293 8.74666 35.536 17.5888 38.2843 26.5505C41.0325 35.5122 43.255 44.3544 44.9757 53.101H34.3172C33.9827 51.3564 33.6481 49.588 33.2896 47.8196C32.9312 46.0272 32.5249 44.2349 32.0708 42.4187H12.6897C12.2357 44.2349 11.8294 46.0272 11.4471 47.8196C11.0647 49.6119 10.7301 51.3564 10.3956 53.101H0C1.72064 44.3544 3.96703 35.5122 6.71527 26.5505C9.48742 17.5888 12.5702 8.74666 16.0115 6.10352e-05H28.8924H28.9402ZM29.9439 33.9588C28.8446 29.944 27.6737 25.977 26.4071 22.0577C25.1405 18.1385 23.7783 14.267 22.3205 10.4673C20.9345 14.267 19.5962 18.1385 18.2818 22.0577C16.9914 25.977 15.7964 29.944 14.7449 33.9588H29.9439Z" fill="#002F50"/>
<path d="M64.8591 10.6821C66.8188 10.5626 68.7306 10.467 70.5468 10.3953C72.3631 10.3236 73.9164 10.2997 75.183 10.2997C79.0305 10.2997 82.3762 10.6343 85.244 11.2795C88.1117 11.9247 90.5254 12.8568 92.485 14.0755C94.4207 15.2943 95.9024 16.7999 96.9061 18.5683C97.9098 20.3368 98.4117 22.3442 98.4117 24.6145C98.4117 27.1715 97.7903 29.4657 96.5237 31.497C95.2571 33.5045 93.3692 35.1773 90.8361 36.5156C92.4133 39.1443 93.9189 41.8448 95.3527 44.5691C96.7866 47.2935 98.1966 50.1373 99.5349 53.1007H88.279C87.1797 50.8065 86.0326 48.5123 84.8138 46.242C83.595 43.9717 82.3284 41.7014 80.9901 39.4311C80.5122 39.4789 80.0343 39.5267 79.5563 39.5745C79.0783 39.6223 78.5765 39.6701 78.0746 39.7179C77.5728 39.7657 77.0709 39.7896 76.5452 39.7896C76.0194 39.7896 75.4937 39.7896 74.944 39.7896V53.1007H64.8831V10.6821H64.8591ZM74.8962 31.8316H77.3577C80.9184 31.8316 83.595 31.2103 85.3634 29.9915C87.1319 28.7727 88.04 27.1237 88.04 25.0685C88.04 24.0887 87.8249 23.2284 87.3948 22.4398C86.9646 21.6511 86.3194 20.9581 85.4351 20.3846C84.5509 19.811 83.4516 19.357 82.1133 19.0463C80.7751 18.7356 79.1978 18.5683 77.3816 18.5683H74.8723V31.8316H74.8962Z" fill="#002F50"/>
<path d="M153.424 49.3967C151.56 50.8067 149.409 51.906 147.019 52.6946C144.606 53.4832 141.953 53.8895 139.014 53.8895C135.835 53.8895 132.943 53.3876 130.339 52.3839C127.758 51.3802 125.535 49.9225 123.695 48.0584C121.855 46.1705 120.421 43.9002 119.417 41.2237C118.414 38.5471 117.912 35.536 117.912 32.1664C117.912 28.6056 118.461 25.4511 119.585 22.7029C120.684 19.9546 122.213 17.6365 124.173 15.7247C126.109 13.8368 128.403 12.4029 131.032 11.4231C133.66 10.4433 136.48 9.96533 139.491 9.96533C141.977 9.96533 144.247 10.276 146.302 10.8735C148.358 11.4709 150.174 12.379 151.775 13.5978L149.385 21.6036C146.804 19.5484 143.721 18.4968 140.161 18.4968C138.512 18.4968 136.958 18.7836 135.501 19.3333C134.043 19.8829 132.776 20.7193 131.701 21.8425C130.625 22.9418 129.765 24.3518 129.144 26.0247C128.522 27.6975 128.212 29.6332 128.212 31.8318C128.212 33.9109 128.498 35.775 129.048 37.4478C129.598 39.1207 130.41 40.5306 131.486 41.7016C132.537 42.8726 133.828 43.7568 135.333 44.4021C136.839 45.0473 138.536 45.358 140.423 45.358C142.598 45.358 144.534 45.0473 146.278 44.3782C147.999 43.7329 149.648 42.7292 151.201 41.3909L153.472 49.4684L153.424 49.3967Z" fill="#002F50"/>
<path d="M192.76 9.94128C195.699 9.94128 198.519 10.3953 201.196 11.3273C203.872 12.2594 206.238 13.6215 208.269 15.4617C210.301 17.3018 211.95 19.5482 213.168 22.2725C214.387 24.973 215.008 28.1036 215.008 31.6644C215.008 35.2252 214.387 38.4992 213.168 41.2713C211.926 44.0435 210.277 46.3615 208.198 48.2495C206.118 50.1374 203.705 51.5474 200.933 52.4794C198.161 53.4353 195.245 53.8893 192.186 53.8893C189.127 53.8893 186.427 53.4353 183.75 52.5033C181.074 51.5713 178.708 50.2091 176.676 48.3689C174.645 46.5288 173.02 44.2824 171.801 41.5581C170.582 38.8576 169.961 35.7031 169.961 32.1184C169.961 28.5338 170.582 25.3076 171.801 22.5593C173.044 19.7872 174.693 17.4691 176.748 15.5812C178.827 13.6932 181.241 12.2833 183.989 11.3512C186.737 10.4192 189.677 9.94128 192.736 9.94128H192.76ZM192.353 18.5206C190.776 18.5206 189.27 18.8074 187.813 19.3809C186.355 19.9545 185.064 20.8148 183.941 21.938C182.818 23.0612 181.934 24.4472 181.241 26.0962C180.572 27.7451 180.237 29.6331 180.237 31.7839C180.237 34.0542 180.572 36.0377 181.241 37.6866C181.91 39.3595 182.818 40.7694 183.965 41.8926C185.112 43.0158 186.427 43.8762 187.956 44.4258C189.462 44.9994 191.039 45.2622 192.688 45.2622C194.217 45.2622 195.699 44.9755 197.157 44.4019C198.615 43.8284 199.905 42.992 201.028 41.8688C202.151 40.7695 203.06 39.3834 203.729 37.7344C204.422 36.0855 204.756 34.1976 204.756 32.0468C204.756 29.896 204.422 27.8407 203.753 26.144C203.083 24.4472 202.175 23.0373 201.028 21.9141C199.881 20.7909 198.567 19.9545 197.037 19.357C195.532 18.7835 193.978 18.4967 192.353 18.4967V18.5206Z" fill="#002F50"/>
<path d="M237.21 42.2522C238.93 43.3515 240.675 44.164 242.443 44.6898C244.212 45.2155 246.052 45.5023 247.94 45.5023C248.991 45.5023 249.9 45.4306 250.712 45.2633C251.501 45.096 252.17 44.857 252.719 44.5225C253.245 44.1879 253.652 43.8055 253.938 43.3037C254.201 42.8257 254.345 42.2522 254.345 41.607C254.345 40.8183 254.058 40.1014 253.484 39.4561C252.911 38.8109 252.17 38.2373 251.238 37.7116C250.306 37.1858 249.254 36.684 248.083 36.1821C246.888 35.6803 245.694 35.1545 244.451 34.6049C243.208 34.0552 241.989 33.41 240.818 32.6692C239.623 31.9522 238.572 31.1158 237.664 30.1599C236.732 29.204 235.991 28.1286 235.417 26.8859C234.844 25.6432 234.557 24.2093 234.557 22.5365C234.557 20.5291 234.939 18.7367 235.68 17.1834C236.421 15.63 237.497 14.2918 238.859 13.1925C240.221 12.0932 241.87 11.2806 243.782 10.731C245.694 10.1813 247.844 9.91846 250.21 9.91846C252.576 9.91846 254.679 10.1813 256.758 10.6832C258.837 11.185 260.725 11.9498 262.47 12.9535L260.104 21.0309C258.527 20.1706 256.973 19.4776 255.42 18.9996C253.867 18.5217 252.265 18.2588 250.664 18.2588C249.708 18.2588 248.872 18.3305 248.131 18.4739C247.39 18.6173 246.769 18.8562 246.291 19.143C245.789 19.4537 245.407 19.8122 245.168 20.2662C244.929 20.7203 244.785 21.2221 244.785 21.7957C244.785 22.5604 245.072 23.2534 245.622 23.827C246.171 24.4005 246.936 24.9741 247.868 25.4998C248.8 26.0256 249.852 26.5274 251.047 27.0054C252.218 27.4833 253.436 28.0091 254.655 28.5826C255.874 29.1323 257.069 29.7775 258.264 30.5184C259.435 31.2353 260.51 32.0956 261.418 33.0515C262.35 34.0313 263.091 35.1545 263.665 36.4211C264.238 37.6877 264.525 39.1694 264.525 40.8422C264.525 42.9691 264.143 44.8332 263.378 46.4582C262.613 48.0833 261.514 49.4454 260.104 50.5447C258.694 51.644 256.997 52.4804 255.014 53.054C253.03 53.6275 250.784 53.8904 248.298 53.8904C245.813 53.8904 243.28 53.5797 241.033 52.9823C238.787 52.3848 236.78 51.5245 235.035 50.4013L237.282 42.2522H237.21Z" fill="#002F50"/>
<path d="M0 72.1055C0.860321 72.0338 1.69675 71.986 2.50928 71.9382C3.3218 71.8904 4.06263 71.8904 4.70787 71.8904C6.548 71.8904 8.19695 72.0816 9.67861 72.4161C11.1364 72.7746 12.3791 73.3004 13.3828 73.9934C14.3865 74.6864 15.1751 75.499 15.7248 76.4788C16.2744 77.4586 16.5373 78.534 16.5373 79.7767C16.5373 80.7087 16.3939 81.569 16.1071 82.3576C15.8204 83.1463 15.4141 83.8632 14.8644 84.5084C14.3148 85.1537 13.6457 85.7033 12.857 86.1813C12.0684 86.6592 11.1603 87.0416 10.1566 87.3523C11.3037 89.0251 12.4507 90.8175 13.6217 92.6815C14.7688 94.5694 15.892 96.5051 16.9913 98.5365H13.3589C12.4268 96.8636 11.3992 95.143 10.2999 93.3506C9.20064 91.5822 8.05354 89.8377 6.85866 88.117C6.3329 88.1887 5.78326 88.2126 5.18582 88.2126C4.58837 88.2126 3.96706 88.2126 3.34571 88.1887V98.5125H0.0478058V72.1055H0ZM3.32179 85.4165C3.65636 85.4165 3.99094 85.4166 4.30161 85.4405C4.61228 85.4405 4.92295 85.4405 5.23362 85.4405C6.47631 85.4405 7.5756 85.321 8.55541 85.0581C9.53522 84.8191 10.3477 84.4368 11.0169 83.9827C11.686 83.5286 12.1879 82.9312 12.5463 82.2621C12.9048 81.5929 13.0721 80.8282 13.0721 79.9678C13.0721 79.1075 12.8809 78.3906 12.5225 77.7454C12.164 77.1001 11.6382 76.5505 10.9691 76.0725C10.2999 75.6184 9.46355 75.26 8.45984 75.021C7.45613 74.782 6.33293 74.6625 5.09024 74.6625C4.82737 74.6625 4.54059 74.6625 4.22992 74.6625C3.91925 74.6625 3.60858 74.6625 3.29791 74.7103V85.3927L3.32179 85.4165Z" fill="#002F50"/>
<path d="M40.579 80.112H31.5218V86.3972H39.8382V89.0976H31.5218V95.789H40.579V98.4895H28.415V77.4116H40.579V80.136V80.112Z" fill="#002F50"/>
<path d="M75.0872 77.4104C75.4218 79.3222 75.7086 81.1862 75.9715 82.9547C76.2344 84.747 76.4494 86.4916 76.6167 88.2361C76.784 89.9806 76.9513 91.6774 77.0708 93.3741C77.1903 95.0709 77.2859 96.7676 77.3814 98.4882H74.1791C74.1075 96.9349 74.0119 95.4054 73.9163 93.8999C73.8207 92.3943 73.7012 90.8648 73.5578 89.3832C73.4144 87.9015 73.2471 86.396 73.0559 84.9143C72.8648 83.4326 72.6497 81.9749 72.4107 80.4932L66.3168 98.4882H62.9472L56.8771 80.4454C56.6382 81.9271 56.3992 83.3848 56.208 84.8665C56.0168 86.3482 55.8495 87.8298 55.7061 89.3354C55.5627 90.8409 55.4194 92.3465 55.3238 93.876C55.2282 95.3815 55.1326 96.9349 55.0848 98.4644H52.0259C52.0976 96.7437 52.1693 95.047 52.2888 93.3502C52.4082 91.6535 52.5516 89.9567 52.7428 88.2122C52.934 86.4676 53.1491 84.7231 53.388 82.9308C53.627 81.1384 53.9377 79.2983 54.2723 77.3865H58.7412L64.6917 94.8797L70.6422 77.3865H75.0872V77.4104Z" fill="#002F50"/>
<path d="M99.3673 77.075C100.777 77.075 102.116 77.3139 103.382 77.768C104.649 78.222 105.796 78.9151 106.776 79.8232C107.755 80.7313 108.544 81.8545 109.142 83.1928C109.739 84.5311 110.026 86.0844 110.026 87.8528C110.026 89.6213 109.715 91.1985 109.118 92.5607C108.52 93.9229 107.708 95.07 106.728 96.002C105.724 96.934 104.577 97.627 103.263 98.105C101.948 98.5829 100.586 98.8219 99.1761 98.8219C97.7662 98.8219 96.4279 98.583 95.1613 98.1289C93.8708 97.6748 92.7477 96.9818 91.7678 96.0737C90.788 95.1656 89.9994 94.0185 89.4258 92.7041C88.8284 91.3658 88.5416 89.8125 88.5416 88.044C88.5416 86.2756 88.8284 84.6983 89.4258 83.3362C90.0233 81.974 90.8119 80.8269 91.8156 79.8949C92.8193 78.9629 93.9664 78.2698 95.2808 77.7919C96.5952 77.3139 97.9573 77.075 99.3912 77.075H99.3673ZM99.2 79.8232C98.268 79.8232 97.3599 79.9905 96.4757 80.3489C95.5915 80.7074 94.8029 81.2331 94.1098 81.9023C93.4168 82.5953 92.8671 83.4317 92.437 84.4354C92.0307 85.4391 91.8156 86.5862 91.8156 87.8767C91.8156 89.2389 92.0307 90.4099 92.437 91.4375C92.8432 92.4651 93.4168 93.3254 94.1098 94.0185C94.8029 94.7115 95.5915 95.2134 96.5235 95.5718C97.4316 95.9064 98.3875 96.0737 99.3673 96.0737C100.275 96.0737 101.184 95.9064 102.068 95.5479C102.952 95.1895 103.741 94.6876 104.434 93.9946C105.127 93.3015 105.676 92.4651 106.107 91.4614C106.537 90.4577 106.752 89.3106 106.752 88.0201C106.752 86.7296 106.537 85.487 106.13 84.4594C105.724 83.4318 105.151 82.5714 104.481 81.8784C103.788 81.1854 102.976 80.6596 102.068 80.325C101.16 79.9666 100.204 79.7993 99.2239 79.7993L99.2 79.8232Z" fill="#002F50"/>
<path d="M122.141 77.4101C122.524 77.3862 122.906 77.3623 123.265 77.3384C123.623 77.3384 123.982 77.3145 124.316 77.2906C124.651 77.2906 124.985 77.2906 125.32 77.2667C125.654 77.2667 126.013 77.2667 126.371 77.2667C128.546 77.2667 130.506 77.5057 132.202 77.9837C133.923 78.4616 135.357 79.1308 136.552 80.015C137.747 80.8992 138.631 81.9746 139.276 83.2651C139.898 84.5556 140.208 85.9894 140.208 87.5906C140.208 89.3351 139.898 90.8885 139.252 92.2507C138.607 93.6367 137.699 94.7838 136.504 95.7398C135.309 96.6957 133.851 97.4126 132.131 97.9144C130.41 98.4163 128.474 98.6553 126.324 98.6553C125.965 98.6553 125.607 98.6553 125.272 98.6553C124.938 98.6553 124.603 98.6553 124.268 98.6314C123.934 98.6314 123.599 98.6075 123.241 98.5836C122.882 98.5836 122.524 98.5358 122.165 98.5119V77.434L122.141 77.4101ZM125.32 95.8592C125.607 95.8592 125.893 95.8592 126.18 95.8592H127.041C128.57 95.8592 129.932 95.668 131.151 95.3096C132.37 94.9511 133.397 94.4253 134.258 93.7323C135.094 93.0393 135.739 92.179 136.193 91.1753C136.647 90.1716 136.863 89.0244 136.863 87.7579C136.863 86.4913 136.647 85.4398 136.193 84.4839C135.739 83.528 135.094 82.7154 134.234 82.0463C133.373 81.3771 132.346 80.8753 131.127 80.5168C129.908 80.1584 128.522 79.9911 126.945 79.9911H126.109C125.846 79.9911 125.559 79.9911 125.272 80.0389V95.8592H125.32Z" fill="#002F50"/>
<path d="M164.393 80.112H155.336V86.3972H163.653V89.0976H155.336V95.789H164.393V98.4895H152.229V77.4116H164.393V80.136V80.112Z" fill="#002F50"/>
<path d="M176.557 77.4116H179.736V95.7412H188.435V98.4895H176.557V77.4116Z" fill="#002F50"/>
<path d="M202.296 98.4895H199.117V77.4116H202.296V98.4895Z" fill="#002F50"/>
<path d="M233.697 98.4895H229.825L219.645 83.2666C219.43 82.9559 219.239 82.6452 219.071 82.3106C218.904 81.9761 218.737 81.6654 218.569 81.3309C218.593 81.6654 218.617 82 218.617 82.3106C218.617 82.6213 218.617 82.9559 218.617 83.2666V98.4895H215.726V77.4116H219.597L229.801 92.6345C230.016 92.9452 230.208 93.2559 230.375 93.5665C230.542 93.8772 230.709 94.1879 230.877 94.5224C230.829 94.2117 230.805 93.8772 230.805 93.5665C230.805 93.2559 230.805 92.9213 230.805 92.6106V77.4116H233.721V98.4895H233.697Z" fill="#002F50"/>
<path d="M264.166 97.1013C263.091 97.6748 261.92 98.105 260.653 98.3918C259.387 98.6786 258.049 98.8219 256.639 98.8219C255.061 98.8219 253.58 98.583 252.241 98.1289C250.903 97.6748 249.732 96.9818 248.752 96.0737C247.773 95.1656 247.008 94.0424 246.458 92.7041C245.909 91.3658 245.622 89.8364 245.622 88.1157C245.622 86.8969 245.765 85.7737 246.028 84.77C246.291 83.7424 246.697 82.8343 247.199 82.0218C247.701 81.2093 248.298 80.4923 248.991 79.871C249.684 79.2496 250.449 78.7239 251.286 78.3176C252.122 77.9113 253.006 77.6007 253.962 77.3856C254.918 77.1705 255.898 77.075 256.902 77.075C258.288 77.075 259.578 77.2661 260.797 77.6724C262.016 78.0787 263.091 78.6283 264.071 79.3213L263.115 81.8067C262.661 81.496 262.207 81.2093 261.705 80.9464C261.203 80.7074 260.701 80.4923 260.199 80.325C259.698 80.1577 259.148 80.0383 258.598 79.9427C258.049 79.8471 257.499 79.8232 256.949 79.8232C255.898 79.8232 254.894 79.9904 253.938 80.325C252.982 80.6596 252.122 81.1615 251.381 81.8306C250.64 82.4997 250.043 83.3361 249.589 84.3638C249.135 85.3914 248.92 86.6102 248.92 87.9962C248.92 89.3823 249.135 90.5055 249.541 91.5331C249.947 92.5607 250.521 93.3971 251.214 94.0902C251.931 94.7593 252.767 95.2851 253.747 95.6196C254.727 95.9542 255.778 96.1215 256.902 96.1215C257.69 96.1215 258.431 96.0498 259.124 95.9303C259.817 95.8108 260.486 95.5957 261.108 95.3089V89.8124H255.492V87.2315H264.19V97.1252L264.166 97.1013Z" fill="#002F50"/>
</svg>
