<svg xmlns="http://www.w3.org/2000/svg" width="36" height="36" viewBox="0 0 36 36" fill="none">
  <path d="M34.073 19.2753C33.2122 19.2753 32.5143 18.5775 32.5143 17.7167C32.5143 16.8559 33.2122 16.158 34.073 16.158H35.9517C35.0693 7.50708 28.0534 0.644325 19.3351 0V1.63551C19.3351 2.49632 18.6373 3.19415 17.7765 3.19415C16.9156 3.19415 16.2178 2.49632 16.2178 1.63551V0.0372478C7.6286 0.878925 0.786834 7.76483 0.012759 16.3734H1.69529C2.5561 16.3734 3.25394 17.0712 3.25394 17.932C3.25394 18.7929 2.5561 19.4907 1.69529 19.4907H0C0.71666 28.2378 7.69558 35.2382 16.4333 35.989V34.0131C16.4333 33.1523 17.1311 32.4545 17.9919 32.4545C18.8527 32.4545 19.5506 33.1523 19.5506 34.0131V35.989C28.3598 35.232 35.3812 28.1226 36 19.2753H34.073ZM24.3014 13.8983L19.0941 19.1057C18.8018 19.398 18.4055 19.5622 17.992 19.5622C17.5787 19.5622 17.1821 19.398 16.8899 19.1057L7.82564 10.0414C7.21692 9.43275 7.21692 8.44589 7.82564 7.83716C8.43426 7.22844 9.42112 7.22844 10.0298 7.83716L17.9921 15.7993L22.0974 11.6941C22.706 11.0853 23.6929 11.0853 24.3016 11.6941C24.9101 12.3027 24.9101 13.2896 24.3014 13.8983Z" fill="white"/>
</svg>