<svg width="34" height="34" viewBox="0 0 34 34" fill="none" xmlns="http://www.w3.org/2000/svg">
<path d="M33.6642 13.229C34.1119 12.7814 34.1119 12.0556 33.6642 11.6079L31.9438 9.88752C31.5548 9.49845 30.9439 9.44075 30.4889 9.74996L26.8716 12.2085L29.3153 8.56678C29.6204 8.11198 29.5613 7.50472 29.1739 7.11749L25.4421 3.38575C25.0976 3.04124 24.5731 2.95205 24.1342 3.16351L23.489 3.47417L23.798 2.78866C23.9938 2.35419 23.9005 1.84399 23.5635 1.50697L22.3921 0.335707C21.9445 -0.111902 21.2186 -0.111902 20.7709 0.335707L11.672 9.43456L24.5653 22.3279L33.6642 13.229Z" fill="white"/>
<path d="M9.97781 11.1289L7.34381 13.7629C7.12884 13.9779 7.00801 14.2694 7.00801 14.5734C7.00801 14.8775 7.12876 15.1691 7.34381 15.384L9.84239 17.8826C10.3238 18.364 10.5572 19.0283 10.483 19.7052C10.4088 20.3816 10.0364 20.9797 9.4615 21.3462C2.11969 26.0262 1.43532 26.7106 1.21048 26.9356C-0.403495 28.5495 -0.403495 31.1755 1.21048 32.7896C2.82607 34.4052 5.45227 34.4019 7.06449 32.7896C7.28948 32.5647 7.97407 31.88 12.6538 24.5386C13.0194 23.965 13.6172 23.5935 14.294 23.5191C14.9728 23.4451 15.6371 23.6774 16.1173 24.1576L18.6159 26.6562C19.0635 27.1038 19.7895 27.1038 20.2371 26.6562L22.8711 24.0221L9.97781 11.1289ZM5.35345 30.938C4.72067 31.5708 3.69477 31.5708 3.06206 30.938C2.42928 30.3052 2.42928 29.2793 3.06206 28.6466C3.69484 28.0138 4.72075 28.0138 5.35345 28.6466C5.98624 29.2793 5.98624 30.3052 5.35345 30.938Z" fill="white"/>
</svg>
